# xmcd CD database file
#
# Track frame offsets:
#	150
#	27597
#	50167
#	83820
#	117570
#	142122
#	169162
#	198547
#	227552
#	253952
#	278820
#	314652
#
# Disc length: 4388 seconds
#
# Revision: 0
# Processed by: cddbd v1.5.1PL2 Copyright (c) Steve Scherf et al.
# Submitted via: CDex 1.51
#
DISCID=bd11220c
DTITLE=Hank Jones - Blue And Sentimental
DYEAR=1995
DGENRE=Jazz
TTITLE0=I REMEMBER YOU
TTITLE1=LOVE WALKED IN
TTITLE2=DAT DERE
TTITLE3=THEME FROM JOBIN
TTITLE4=A FOGGY DAY
TTITLE5=HANK'S BLUES
TTITLE6=YOURS IS MY HEART ALONE
TTITLE7=COME TO ME
TTITLE8=BLUESETTE
TTITLE9=THINGS AIN'T WHAT THEY USED TO BE
TTITLE10=BLUES IN MY HEART
TTITLE11=BLUE AND SENTIMENTAL
EXTD=YEAR: 1995
EXTT0=
EXTT1=
EXTT2=
EXTT3=
EXTT4=
EXTT5=
EXTT6=
EXTT7=
EXTT8=
EXTT9=
EXTT10=
EXTT11=
PLAYORDER=
